<?xml version="1.0" encoding="UTF-8" standalone="no"?>
<!-- Created with Inkscape (http://www.inkscape.org/) -->

<svg
   version="1.1"
   id="svg2"
   width="528"
   height="150.49333"
   viewBox="0 0 528 150.49333"
   sodipodi:docname="cldr_corp_logo_color_pms_101.eps"
   xmlns:inkscape="http://www.inkscape.org/namespaces/inkscape"
   xmlns:sodipodi="http://sodipodi.sourceforge.net/DTD/sodipodi-0.dtd"
   xmlns="http://www.w3.org/2000/svg"
   xmlns:svg="http://www.w3.org/2000/svg">
  <defs
     id="defs6" />
  <sodipodi:namedview
     id="namedview4"
     pagecolor="#ffffff"
     bordercolor="#000000"
     borderopacity="0.25"
     inkscape:showpageshadow="2"
     inkscape:pageopacity="0.0"
     inkscape:pagecheckerboard="0"
     inkscape:deskcolor="#d1d1d1" />
  <g
     id="g8"
     inkscape:groupmode="layer"
     inkscape:label="ink_ext_XXXXXX"
     transform="matrix(1.3333333,0,0,-1.3333333,0,150.49333)">
    <g
       id="g10"
       transform="scale(0.1)">
      <path
         d="m 1822.55,542.82 c 0,-59.195 -34,-94.902 -81.79,-94.902 -47.8,0 -81.8,35.707 -81.8,94.902 v 208.91 h -86.53 V 546.16 c 0,-108.242 67.97,-176.594 168.33,-176.594 100.36,0 168.33,68.352 168.33,176.594 v 205.57 h -86.54 z m 1615.99,-19.14 -52,130.918 -52,-130.918 z m 145.37,-145.586 h -87.55 l -30.29,76.265 H 3307 l -30.29,-76.265 h -87.54 l 157.73,373.633 h 77.53 z m -513.37,244.75 c 0,16.496 -6.59,31.949 -16.62,40.758 -11.34,9.961 -27.61,15.144 -50.25,15.144 h -82.72 V 566.555 h 82.99 c 22.2,0 37.99,5.019 49.19,14.648 10.57,9.082 17.41,24.692 17.41,41.641 z m -8.51,-119.028 106.6,-125.722 h -100.77 l -99.25,117.984 h -47.66 V 378.094 h -84.81 V 751.73 h 172.29 c 48.04,0 83.31,-11.718 108.6,-33.324 25.28,-21.605 40.01,-54.828 40.01,-94.367 0,-49.496 -21.04,-100.91 -95.01,-120.223 z M 885.895,751.73 H 799.352 V 378.094 h 261.818 v 76.035 H 885.895 Z M 576.266,448.473 c -63.922,0 -110.243,50.445 -110.243,116.48 0,66.035 46.321,116.352 110.243,116.352 30.761,0 56.168,-10.938 78.359,-31.973 l 55.785,55.789 c -33.715,34.762 -80.707,55.145 -135.066,55.145 -112.449,0 -199.121,-85.805 -199.121,-195.344 0,-109.543 86.672,-195.356 199.121,-195.356 56.785,0 106.531,22.946 140.441,61.5 l -55.504,55.5 C 637.91,461.797 611.188,448.473 576.266,448.473 Z M 2281.92,564.914 c 0,67.457 -48.75,112.129 -121.31,112.129 h -57.07 V 452.777 h 57.07 c 72.56,0 121.31,44.672 121.31,112.137 z m 89.8,0 c 0,-111.742 -82.38,-186.82 -205.01,-186.82 H 2017 V 751.73 h 146.08 c 122.62,0 208.64,-75.078 208.64,-186.816 z m -974.01,-0.574 c 0,68.129 -44.63,117.578 -107.52,117.578 -62.9,0 -107.53,-49.449 -107.53,-117.578 0,-67.461 44.63,-116.422 107.53,-116.422 62.89,0 107.52,48.961 107.52,116.422 z m 89.8,0.008 c 0,-109.223 -82.72,-194.782 -197.32,-194.782 -114.62,0 -197.33,85.559 -197.33,194.782 0,109.859 82.71,195.918 197.33,195.918 114.6,0 197.32,-86.059 197.32,-195.918 z m 923.56,-186.254 h 323.68 v 77.226 h -272.47 c -12.13,-29.261 -29.55,-55.082 -51.21,-77.226 z m 277.66,149.797 v 76.476 H 2480 c 1.79,-13.082 3.03,-26.429 3.03,-40.328 0,-12.41 -0.93,-24.387 -2.31,-36.148 z m -281.79,223.836 h 326.11 v -77.223 h -272.22 c -12.86,29.336 -31.25,55.133 -53.89,77.223"
         style="fill:#f2591a;fill-opacity:1;fill-rule:nonzero;stroke:none"
         id="path12" />
    </g>
  </g>
</svg>
